<svg xmlns="http://www.w3.org/2000/svg" xmlns:xlink="http://www.w3.org/1999/xlink" width="34.77" height="32.893" viewBox="0 0 34.77 32.893">
  <defs>
    <clipPath id="clip-path">
      <rect id="Rectangle_534" data-name="Rectangle 534" width="34.77" height="32.893" fill="none"/>
    </clipPath>
  </defs>
  <g id="Group_732" data-name="Group 732" transform="translate(0)">
    <g id="Group_731" data-name="Group 731" transform="translate(0 0)" clip-path="url(#clip-path)">
      <path id="Path_253" data-name="Path 253" d="M28.664,31.989H4.737A4.238,4.238,0,0,1,.5,27.751V7.412A1.525,1.525,0,0,1,2.025,5.887h26.64A4.237,4.237,0,0,1,32.9,10.124V27.751a4.237,4.237,0,0,1-4.237,4.237" transform="translate(0.032 0.373)" fill="#afe0ef"/>
      <path id="Path_254" data-name="Path 254" d="M28.7,32.552H4.77A4.775,4.775,0,0,1,0,27.783V7.443A2.06,2.06,0,0,1,2.057,5.387H28.7a4.774,4.774,0,0,1,4.768,4.769V27.783A4.774,4.774,0,0,1,28.7,32.552M2.057,6.45a.994.994,0,0,0-.994.993v20.34A3.711,3.711,0,0,0,4.77,31.489H28.7a3.71,3.71,0,0,0,3.7-3.706V10.156A3.709,3.709,0,0,0,28.7,6.45Z" transform="translate(0 0.341)" fill="#13678a"/>
      <path id="Path_255" data-name="Path 255" d="M1.146,6.791a.531.531,0,0,1-.131-1.046L23.4.08a2.525,2.525,0,0,1,3.147,2.449V6.26a.532.532,0,1,1-1.063,0V2.528a1.464,1.464,0,0,0-1.822-1.419L1.276,6.774a.514.514,0,0,1-.131.017" transform="translate(0.039 0)" fill="#13678a"/>
      <path id="Path_256" data-name="Path 256" d="M32.781,21.253H25.806a2.77,2.77,0,0,1,0-5.54h6.975Z" transform="translate(1.458 0.994)" fill="#afe0ef"/>
      <path id="Path_257" data-name="Path 257" d="M32.814,21.816H25.837a3.3,3.3,0,0,1,0-6.6h6.976a.532.532,0,0,1,.532.532v5.541a.532.532,0,0,1-.532.532m-6.976-5.541a2.239,2.239,0,0,0,0,4.478h6.445V16.275Z" transform="translate(1.426 0.963)" fill="#13678a"/>
    </g>
  </g>
</svg>
