<svg xmlns="http://www.w3.org/2000/svg" xmlns:xlink="http://www.w3.org/1999/xlink" width="32.292" height="39.844" viewBox="0 0 32.292 39.844">
  <defs>
    <clipPath id="clip-path">
      <rect id="Rectangle_532" data-name="Rectangle 532" width="32.292" height="39.843" fill="none"/>
    </clipPath>
  </defs>
  <g id="Group_728" data-name="Group 728" transform="translate(0)">
    <g id="Group_727" data-name="Group 727" transform="translate(0 0)" clip-path="url(#clip-path)">
      <path id="Path_228" data-name="Path 228" d="M21.062,19.6V6.659a6.673,6.673,0,0,0-1.929-4.451A6.451,6.451,0,0,0,14.467.51a7.14,7.14,0,0,0-3.742,1.748l1.286,1.83L6.967,8.539l1.582,2.274,4.683-1.121a3.613,3.613,0,0,1-.132,2.127c-.446.742-2.016,1.977-2.592,2.851-.314.474-.2,1.632-.212,2.953-.015,1.112.017,1.978.017,1.978Z" transform="translate(0.441 0.031)" fill="#afe0ef"/>
      <path id="Path_229" data-name="Path 229" d="M21.094,20.163H10.346a.532.532,0,0,1-.532-.511s-.033-.877-.018-2.005c0-.318,0-.626,0-.918a4.488,4.488,0,0,1,.3-2.321,11.292,11.292,0,0,1,1.421-1.565,8.959,8.959,0,0,0,1.159-1.265,2.263,2.263,0,0,0,.149-1.2l-4.119.987a.541.541,0,0,1-.56-.215L6.563,8.873a.531.531,0,0,1,.084-.7l4.688-4.136L10.322,2.594a.532.532,0,0,1,.069-.691A7.637,7.637,0,0,1,14.445.013a6.944,6.944,0,0,1,5.118,1.874,7.166,7.166,0,0,1,2.062,4.836V19.631a.532.532,0,0,1-.532.532M10.864,19.1h9.7V6.69a6.137,6.137,0,0,0-1.793-4.1A5.951,5.951,0,0,0,14.554,1.07a6.442,6.442,0,0,0-3.08,1.314l1,1.43a.532.532,0,0,1-.084.7L7.706,8.655l1.1,1.589,4.33-1.038a.539.539,0,0,1,.4.066.526.526,0,0,1,.237.334,3.991,3.991,0,0,1-.194,2.518A9.174,9.174,0,0,1,12.261,13.6a10.721,10.721,0,0,0-1.278,1.393,5.062,5.062,0,0,0-.128,1.72c0,.3.009.618,0,.945-.007.576,0,1.087,0,1.44" transform="translate(0.409 0)" fill="#13678a"/>
      <path id="Path_230" data-name="Path 230" d="M14.892,10.15a1.869,1.869,0,0,1-.853-.2,2.134,2.134,0,0,0-1.07-.1A.532.532,0,0,1,12.808,8.8a3.2,3.2,0,0,1,1.719.2,1.2,1.2,0,0,0,1.435-.548,3,3,0,0,0,.476-1.687.531.531,0,0,1,1.061-.06,4.042,4.042,0,0,1-.676,2.37,2.4,2.4,0,0,1-1.932,1.069" transform="translate(0.782 0.393)" fill="#13678a"/>
      <path id="Path_231" data-name="Path 231" d="M22.429,21.4H19.735a.532.532,0,1,1,0-1.063H21.9v-1.31H9.212v1.31h8.123a.532.532,0,0,1,0,1.063H8.681a.532.532,0,0,1-.532-.532V18.495a.531.531,0,0,1,.532-.532H22.429a.531.531,0,0,1,.532.532v2.373a.532.532,0,0,1-.532.532" transform="translate(0.516 1.136)" fill="#13678a"/>
      <path id="Path_232" data-name="Path 232" d="M23.816,24.325H7.494a.532.532,0,0,1-.532-.532V21.469A1.276,1.276,0,0,1,8.237,20.2h.519a.532.532,0,0,1,0,1.063H8.237a.212.212,0,0,0-.212.211v1.793H23.284V21.469a.212.212,0,0,0-.212-.211H22.5a.532.532,0,0,1,0-1.063h.569a1.276,1.276,0,0,1,1.275,1.274v2.324a.533.533,0,0,1-.532.532" transform="translate(0.441 1.278)" fill="#13678a"/>
      <line id="Line_18" data-name="Line 18" y2="7.124" transform="translate(16.071 25.071)" fill="#afe0ef"/>
      <path id="Path_233" data-name="Path 233" d="M15.146,31.266a.532.532,0,0,1-.532-.532V23.611a.532.532,0,1,1,1.063,0v7.124a.532.532,0,0,1-.532.532" transform="translate(0.925 1.46)" fill="#13678a"/>
      <path id="Path_234" data-name="Path 234" d="M18.908,33.838a3.558,3.558,0,1,1-3.559-3.559,3.559,3.559,0,0,1,3.559,3.559" transform="translate(0.746 1.916)" fill="#afe0ef"/>
      <path id="Path_235" data-name="Path 235" d="M15.381,37.959a4.09,4.09,0,1,1,4.09-4.089,4.095,4.095,0,0,1-4.09,4.089m0-7.117a3.027,3.027,0,1,0,3.027,3.027,3.031,3.031,0,0,0-3.027-3.027" transform="translate(0.715 1.884)" fill="#13678a"/>
      <path id="Path_236" data-name="Path 236" d="M30.294,31.967a3.558,3.558,0,1,1-3.559-3.559,3.559,3.559,0,0,1,3.559,3.559" transform="translate(1.467 1.797)" fill="#afe0ef"/>
      <path id="Path_237" data-name="Path 237" d="M26.766,36.088A4.09,4.09,0,1,1,30.857,32a4.095,4.095,0,0,1-4.09,4.089m0-7.117A3.027,3.027,0,1,0,29.794,32a3.031,3.031,0,0,0-3.027-3.027" transform="translate(1.435 1.766)" fill="#13678a"/>
      <path id="Path_238" data-name="Path 238" d="M23.936,30.949a.526.526,0,0,1-.313-.1l-3.68-2.671a.534.534,0,0,1-.219-.431V23.611a.532.532,0,1,1,1.063,0v3.864l3.461,2.514a.532.532,0,0,1-.313.961" transform="translate(1.248 1.46)" fill="#13678a"/>
      <path id="Path_239" data-name="Path 239" d="M.5,31.967a3.558,3.558,0,1,0,3.559-3.559A3.559,3.559,0,0,0,.5,31.967" transform="translate(0.032 1.797)" fill="#afe0ef"/>
      <path id="Path_240" data-name="Path 240" d="M4.09,36.088A4.09,4.09,0,1,1,8.181,32a4.095,4.095,0,0,1-4.09,4.089m0-7.117A3.027,3.027,0,1,0,7.118,32,3.031,3.031,0,0,0,4.09,28.971" transform="translate(0 1.766)" fill="#13678a"/>
      <path id="Path_241" data-name="Path 241" d="M6.716,30.949a.532.532,0,0,1-.313-.961l3.462-2.514V23.611a.532.532,0,1,1,1.063,0v4.135a.534.534,0,0,1-.219.431L7.028,30.847a.526.526,0,0,1-.313.1" transform="translate(0.391 1.46)" fill="#13678a"/>
    </g>
  </g>
</svg>
