<svg id="Group_720" data-name="Group 720" xmlns="http://www.w3.org/2000/svg" xmlns:xlink="http://www.w3.org/1999/xlink" width="36.9" height="30.625" viewBox="0 0 36.9 30.625">
  <defs>
    <clipPath id="clip-path">
      <rect id="Rectangle_528" data-name="Rectangle 528" width="36.9" height="30.625" fill="none"/>
    </clipPath>
  </defs>
  <rect id="Rectangle_527" data-name="Rectangle 527" width="30.828" height="21.815" transform="translate(3.037 0.533)" fill="#afe0ef"/>
  <g id="Group_719" data-name="Group 719" transform="translate(0 0)">
    <g id="Group_718" data-name="Group 718" clip-path="url(#clip-path)">
      <path id="Path_184" data-name="Path 184" d="M33.715,22.88H2.888a.531.531,0,0,1-.532-.532V.532A.531.531,0,0,1,2.888,0H33.715a.532.532,0,0,1,.532.532V22.348a.532.532,0,0,1-.532.532m-30.3-1.063H33.184V1.063H3.419Z" transform="translate(0.149 0)" fill="#13678a"/>
      <path id="Path_185" data-name="Path 185" d="M21.766,15.019a.532.532,0,0,1-.345-.937L25.043,11,21.421,7.915a.532.532,0,0,1,.689-.81l4.1,3.489a.532.532,0,0,1,0,.81l-4.1,3.489a.529.529,0,0,1-.345.127" transform="translate(1.344 0.442)" fill="#13678a"/>
      <path id="Path_186" data-name="Path 186" d="M15.591,17.982a.552.552,0,0,1-.154-.022.533.533,0,0,1-.355-.663L18.9,4.7A.532.532,0,1,1,19.914,5L16.1,17.6a.533.533,0,0,1-.509.377" transform="translate(0.953 0.273)" fill="#13678a"/>
      <path id="Path_187" data-name="Path 187" d="M36.369,29.12H.532a.531.531,0,0,1-.505-.7l.665-2.013a.531.531,0,0,1,.505-.365H11.4l.9-1.954a.53.53,0,0,1,.483-.309H24.461a.53.53,0,0,1,.5.353l.681,1.911H35.7a.529.529,0,0,1,.5.365l.665,2.013a.531.531,0,0,1-.5.7m-35.1-1.063H35.633l-.314-.95H25.267a.528.528,0,0,1-.5-.354l-.681-1.91H13.12l-.9,1.953a.531.531,0,0,1-.483.31H1.58Z" transform="translate(0 1.505)" fill="#13678a"/>
      <path id="Path_188" data-name="Path 188" d="M11.671,26.75l1.038-2.265H24.39L25.2,26.75H35.633l-1.892-5.732H3.017L1.124,26.75Z" transform="translate(0.071 1.33)" fill="#afe0ef"/>
      <path id="Path_189" data-name="Path 189" d="M35.664,27.313H25.227a.529.529,0,0,1-.5-.354l-.681-1.91H13.081L12.185,27a.531.531,0,0,1-.483.31H1.157a.532.532,0,0,1-.505-.7l1.892-5.732a.532.532,0,0,1,.505-.365H33.773a.53.53,0,0,1,.5.365l1.893,5.732a.532.532,0,0,1-.505.7M25.6,26.25h9.326l-1.541-4.669H3.432L1.891,26.25h9.47l.9-1.954a.53.53,0,0,1,.483-.309H24.422a.529.529,0,0,1,.5.353Z" transform="translate(0.04 1.299)" fill="#13678a"/>
      <path id="Path_190" data-name="Path 190" d="M13.064,15.019a.529.529,0,0,1-.345-.127L8.621,11.4a.532.532,0,0,1,0-.81l4.1-3.489a.532.532,0,0,1,.689.81L9.786,11l3.622,3.084a.532.532,0,0,1-.345.937" transform="translate(0.534 0.442)" fill="#13678a"/>
    </g>
  </g>
</svg>
