<svg id="Group_724" data-name="Group 724" xmlns="http://www.w3.org/2000/svg" xmlns:xlink="http://www.w3.org/1999/xlink" width="34.709" height="31.094" viewBox="0 0 34.709 31.094">
  <defs>
    <clipPath id="clip-path">
      <rect id="Rectangle_530" data-name="Rectangle 530" width="34.709" height="31.094" fill="none"/>
    </clipPath>
  </defs>
  <g id="Group_723" data-name="Group 723" transform="translate(0 0)" clip-path="url(#clip-path)">
    <path id="Path_199" data-name="Path 199" d="M22.9,27.054H8.639a2.089,2.089,0,0,1-1.808-2.185,2.517,2.517,0,0,1,.86-1.993L4.21,11.111H.532a.532.532,0,0,1,0-1.063H4.606a.529.529,0,0,1,.509.381l3.71,12.528A.533.533,0,0,1,8.5,23.6c-.013.006-.585.265-.606,1.287A1.02,1.02,0,0,0,8.731,26L22.9,25.991a.532.532,0,1,1,0,1.063" transform="translate(0 0.636)" fill="#13678a"/>
    <path id="Path_200" data-name="Path 200" d="M5.236,13.661H24.342l-2.068,9.217H7.984Z" transform="translate(0.331 0.865)" fill="#afe0ef"/>
    <path id="Path_201" data-name="Path 201" d="M22.306,23.441H8.015a.533.533,0,0,1-.51-.38L4.757,13.845a.532.532,0,0,1,.51-.684H24.374a.533.533,0,0,1,.519.648l-2.067,9.217a.532.532,0,0,1-.52.416M8.412,22.378H21.88l1.829-8.153H5.981Z" transform="translate(0.3 0.833)" fill="#13678a"/>
    <path id="Path_202" data-name="Path 202" d="M9.965,29.5a2.169,2.169,0,1,1,2.168-2.168A2.171,2.171,0,0,1,9.965,29.5m0-3.274a1.105,1.105,0,1,0,1.1,1.106,1.107,1.107,0,0,0-1.1-1.106" transform="translate(0.493 1.593)" fill="#13678a"/>
    <path id="Path_203" data-name="Path 203" d="M19.332,29.5A2.169,2.169,0,1,1,21.5,27.333,2.171,2.171,0,0,1,19.332,29.5m0-3.274a1.105,1.105,0,1,0,1.1,1.106,1.106,1.106,0,0,0-1.1-1.106" transform="translate(1.086 1.593)" fill="#13678a"/>
    <path id="Path_204" data-name="Path 204" d="M24.046,24.275a.532.532,0,0,1-.488-.743,33.285,33.285,0,0,0,1.831-6.072,24.368,24.368,0,0,0,.494-4.678H10.465a.531.531,0,0,1-.53-.487,11.715,11.715,0,0,1,2.08-7.077A12.589,12.589,0,0,1,22.272,0a11.307,11.307,0,0,1,8.407,3.82,13.71,13.71,0,0,1,3.384,8.422,11.483,11.483,0,0,1-2.67,7.673,11.78,11.78,0,0,1-7.287,4.354.4.4,0,0,1-.062,0M10.986,11.717H26.4a.531.531,0,0,1,.53.487,21.915,21.915,0,0,1-.494,5.457,34.217,34.217,0,0,1-1.525,5.349,11.07,11.07,0,0,0,5.652-3.753A10.634,10.634,0,0,0,33,12.3a12.887,12.887,0,0,0-3.1-7.76,10.276,10.276,0,0,0-7.627-3.477,11.514,11.514,0,0,0-9.385,4.758,10.933,10.933,0,0,0-1.9,5.895" transform="translate(0.628 0.001)" fill="#13678a"/>
    <path id="Path_205" data-name="Path 205" d="M21.745,8.045c-7.076,0-9.88-1.871-10-1.951a.532.532,0,0,1,.6-.877c.055.037,2.738,1.765,9.4,1.765,6.7,0,9.472-1.752,9.5-1.77a.531.531,0,0,1,.585.887c-.119.08-3.014,1.947-10.084,1.947" transform="translate(0.729 0.325)" fill="#13678a"/>
    <path id="Path_206" data-name="Path 206" d="M32.583,12.083H25.449a.532.532,0,0,1,0-1.063h7.135a.532.532,0,0,1,0,1.063" transform="translate(1.577 0.698)" fill="#13678a"/>
    <path id="Path_207" data-name="Path 207" d="M30.9,17.948a.528.528,0,0,1-.255-.066,17.137,17.137,0,0,0-2.544-1.1,14.469,14.469,0,0,0-2.882-.632h-.01a.509.509,0,0,1-.6-.434.547.547,0,0,1,.451-.618,12.7,12.7,0,0,1,3.37.673,17.653,17.653,0,0,1,2.724,1.176.531.531,0,0,1-.257,1" transform="translate(1.557 0.956)" fill="#13678a"/>
    <path id="Path_208" data-name="Path 208" d="M16.946,12.781h-.009a.532.532,0,0,1-.523-.54c0-.225.1-5.547,1.506-8.682C19.4.243,21.452.012,21.538,0a.532.532,0,0,1,.1,1.059c-.054.006-1.542.23-2.751,2.93-1.311,2.935-1.411,8.212-1.412,8.265a.533.533,0,0,1-.532.523" transform="translate(1.039 0.001)" fill="#13678a"/>
    <path id="Path_209" data-name="Path 209" d="M25.856,12.781a.533.533,0,0,1-.532-.523c0-.053-.1-5.33-1.413-8.265-1.208-2.7-2.7-2.924-2.758-2.931a.536.536,0,0,1-.464-.588A.518.518,0,0,1,21.263,0c.086.009,2.135.24,3.617,3.556,1.4,3.135,1.5,8.456,1.507,8.682a.532.532,0,0,1-.523.54Z" transform="translate(1.309 0.001)" fill="#13678a"/>
  </g>
</svg>
