<svg xmlns="http://www.w3.org/2000/svg" xmlns:xlink="http://www.w3.org/1999/xlink" width="24.99" height="34.789" viewBox="0 0 24.99 34.789">
  <defs>
    <clipPath id="clip-path">
      <rect id="Rectangle_535" data-name="Rectangle 535" width="24.99" height="34.789" fill="none"/>
    </clipPath>
  </defs>
  <g id="Group_734" data-name="Group 734" transform="translate(0)">
    <g id="Group_733" data-name="Group 733" transform="translate(0 0)" clip-path="url(#clip-path)">
      <path id="Path_258" data-name="Path 258" d="M15.327,25.031a2.133,2.133,0,0,1-1.85-1.065l-.451-.779a10.93,10.93,0,0,1-1.952.179.532.532,0,0,1,0-1.063,9.95,9.95,0,0,0,2.108-.231.529.529,0,0,1,.573.253l.641,1.11a1.073,1.073,0,0,0,1.461.391l2.619-1.512a1.068,1.068,0,0,0,.391-1.461l-.64-1.11a.533.533,0,0,1,.067-.625,9.838,9.838,0,0,0,2.11-3.649.533.533,0,0,1,.507-.371H22.19a1.07,1.07,0,0,0,1.07-1.069V11.005a1.07,1.07,0,0,0-1.07-1.07H20.911a.533.533,0,0,1-.507-.371,9.851,9.851,0,0,0-2.11-3.65.531.531,0,0,1-.067-.624l.64-1.11a1.073,1.073,0,0,0-.391-1.461L15.857,1.207A1.07,1.07,0,0,0,14.4,1.6l-.641,1.11a.53.53,0,0,1-.573.253,9.95,9.95,0,0,0-2.108-.231.532.532,0,0,1,0-1.063,10.93,10.93,0,0,1,1.952.179l.451-.779a2.132,2.132,0,0,1,2.912-.78L19.008,1.8a2.136,2.136,0,0,1,.779,2.913l-.45.778a10.958,10.958,0,0,1,1.955,3.382h.9a2.134,2.134,0,0,1,2.133,2.133v3.023A2.134,2.134,0,0,1,22.19,16.16h-.9a10.97,10.97,0,0,1-1.955,3.382l.45.778a2.133,2.133,0,0,1-.779,2.914l-2.619,1.51a2.1,2.1,0,0,1-1.062.286m-4.253-5.583a.532.532,0,0,1,0-1.063,5.868,5.868,0,1,0,0-11.737.532.532,0,0,1,0-1.063,6.932,6.932,0,1,1,0,13.863" transform="translate(0.667 0)" fill="#13678a"/>
      <path id="Path_259" data-name="Path 259" d="M9.263,23.314h-4.2a.532.532,0,0,1-.528-.592A5.743,5.743,0,0,0,4.387,20.8a4.253,4.253,0,0,0-.765-1.434A32.037,32.037,0,0,1,.9,14.94a8.322,8.322,0,0,1-.73-5.453C1.065,5.237,3.353,3.3,5.115,2.42a9.127,9.127,0,0,1,4.177-.957.531.531,0,0,1,.5.559.506.506,0,0,1-.558.5,8.193,8.193,0,0,0-3.646.846c-2.227,1.11-3.74,3.3-4.376,6.335a7.341,7.341,0,0,0,.632,4.744,31.083,31.083,0,0,0,2.63,4.278A5.286,5.286,0,0,1,5.409,20.5a6.346,6.346,0,0,1,.216,1.746H9.263a.532.532,0,0,1,0,1.063" transform="translate(0 0.092)" fill="#13678a"/>
      <path id="Path_260" data-name="Path 260" d="M14.441,24.246H5.519a.532.532,0,0,1,0-1.063h8.922a.532.532,0,0,1,0,1.063" transform="translate(0.316 1.467)" fill="#13678a"/>
      <path id="Path_261" data-name="Path 261" d="M14.441,26.416H5.519a.532.532,0,0,1,0-1.063h8.922a.532.532,0,0,1,0,1.063" transform="translate(0.316 1.605)" fill="#13678a"/>
      <path id="Path_262" data-name="Path 262" d="M5.487,28.023a4.461,4.461,0,0,0,8.922,0Z" transform="translate(0.347 1.773)" fill="#afe0ef"/>
      <path id="Path_263" data-name="Path 263" d="M9.979,33.047a5,5,0,0,1-4.992-4.992.531.531,0,0,1,.532-.532H14.44a.531.531,0,0,1,.532.532,5,5,0,0,1-4.992,4.992m-3.893-4.46a3.929,3.929,0,0,0,7.785,0Z" transform="translate(0.316 1.742)" fill="#13678a"/>
    </g>
  </g>
</svg>
