<svg xmlns="http://www.w3.org/2000/svg" xmlns:xlink="http://www.w3.org/1999/xlink" width="53.466" height="27.805" viewBox="0 0 53.466 27.805">
  <defs>
    <clipPath id="clip-path">
      <rect id="Rectangle_531" data-name="Rectangle 531" width="53.466" height="27.805" fill="none"/>
    </clipPath>
  </defs>
  <g id="Group_726" data-name="Group 726" transform="translate(0)">
    <g id="Group_725" data-name="Group 725" transform="translate(0 0)" clip-path="url(#clip-path)">
      <path id="Path_210" data-name="Path 210" d="M30.407,17.558a5.192,5.192,0,0,1-9.361,0H15.907a1.271,1.271,0,0,0,.744.262H17.7a8.418,8.418,0,0,0,1.816,3.142l-.523.906a1.307,1.307,0,0,0,.478,1.785L21.6,24.886a1.306,1.306,0,0,0,1.785-.478l.523-.906a8.369,8.369,0,0,0,3.627,0l.523.906a1.306,1.306,0,0,0,1.785.478l2.138-1.233a1.307,1.307,0,0,0,.478-1.785l-.524-.906a8.4,8.4,0,0,0,1.816-3.142H34.8a1.277,1.277,0,0,0,.745-.262Z" transform="translate(1.007 1.111)" fill="#afe0ef"/>
      <path id="Path_211" data-name="Path 211" d="M29.23,25.626a1.846,1.846,0,0,1-.48-.064,1.827,1.827,0,0,1-1.115-.856l-.333-.577a9.009,9.009,0,0,1-3.087,0l-.334.577a1.836,1.836,0,0,1-2.51.671l-2.138-1.233a1.839,1.839,0,0,1-.672-2.51l.333-.577a9.017,9.017,0,0,1-1.545-2.673h-.665a1.791,1.791,0,0,1-1.053-.36.531.531,0,0,1,.308-.964h5.139a.534.534,0,0,1,.477.3,4.658,4.658,0,0,0,8.405,0,.534.534,0,0,1,.477-.3h5.139a.531.531,0,0,1,.308.964,1.791,1.791,0,0,1-1.053.36h-.665a9.046,9.046,0,0,1-1.545,2.673l.332.577a1.838,1.838,0,0,1-.671,2.51l-2.138,1.233a1.821,1.821,0,0,1-.917.249M27.572,23a.531.531,0,0,1,.46.266l.523.907a.771.771,0,0,0,.47.36.787.787,0,0,0,.589-.078l2.138-1.233a.777.777,0,0,0,.283-1.059l-.523-.907a.533.533,0,0,1,.068-.625,7.97,7.97,0,0,0,1.551-2.511H30.761a5.719,5.719,0,0,1-10,0H18.385a7.961,7.961,0,0,0,1.55,2.513.533.533,0,0,1,.069.624l-.522.907a.775.775,0,0,0,.282,1.059L21.9,24.457a.779.779,0,0,0,1.059-.283l.523-.907a.527.527,0,0,1,.574-.253,7.9,7.9,0,0,0,3.4,0A.526.526,0,0,1,27.572,23" transform="translate(0.975 1.079)" fill="#13678a"/>
      <path id="Path_212" data-name="Path 212" d="M21.046,8.8a5.192,5.192,0,0,1,9.361,0h5.139a1.271,1.271,0,0,0-.744-.262H33.756A8.416,8.416,0,0,0,31.941,5.4l.523-.906a1.307,1.307,0,0,0-.478-1.785L29.849,1.476a1.307,1.307,0,0,0-1.785.477l-.523.907a8.374,8.374,0,0,0-3.628,0l-.523-.907a1.306,1.306,0,0,0-1.784-.477L19.467,2.71A1.307,1.307,0,0,0,18.988,4.5l.523.906A8.416,8.416,0,0,0,17.7,8.543H16.652a1.274,1.274,0,0,0-.745.262Z" transform="translate(1.007 0.082)" fill="#afe0ef"/>
      <path id="Path_213" data-name="Path 213" d="M35.577,9.367H30.439a.532.532,0,0,1-.477-.3,4.659,4.659,0,0,0-8.405,0,.532.532,0,0,1-.477.3H15.94a.531.531,0,0,1-.308-.964,1.791,1.791,0,0,1,1.053-.36h.665a9.017,9.017,0,0,1,1.545-2.673l-.334-.577a1.841,1.841,0,0,1,.673-2.51l2.138-1.233a1.835,1.835,0,0,1,2.51.672l.334.577a8.957,8.957,0,0,1,3.087,0l.334-.577a1.834,1.834,0,0,1,2.51-.672l2.138,1.233a1.838,1.838,0,0,1,.671,2.51l-.332.577a9.046,9.046,0,0,1,1.545,2.673h.665a1.791,1.791,0,0,1,1.053.36.531.531,0,0,1-.308.964M30.761,8.3h2.37a7.947,7.947,0,0,0-1.55-2.511.533.533,0,0,1-.068-.625l.523-.907A.777.777,0,0,0,31.753,3.2L29.615,1.968a.773.773,0,0,0-1.058.284l-.524.906a.527.527,0,0,1-.574.253,7.9,7.9,0,0,0-3.4,0,.527.527,0,0,1-.574-.253l-.523-.906A.775.775,0,0,0,21.9,1.968L19.764,3.2a.776.776,0,0,0-.283,1.059L20,5.167a.533.533,0,0,1-.069.624A7.961,7.961,0,0,0,18.385,8.3h2.371a5.72,5.72,0,0,1,10,0" transform="translate(0.975 0.05)" fill="#13678a"/>
      <path id="Path_214" data-name="Path 214" d="M28.736,13.16a3.392,3.392,0,1,1-3.392-3.392,3.392,3.392,0,0,1,3.392,3.392" transform="translate(1.389 0.618)" fill="#afe0ef"/>
      <path id="Path_215" data-name="Path 215" d="M25.375,17.116A3.924,3.924,0,1,1,29.3,13.191a3.928,3.928,0,0,1-3.924,3.925m0-6.784a2.86,2.86,0,1,0,2.86,2.859,2.862,2.862,0,0,0-2.86-2.859" transform="translate(1.358 0.586)" fill="#13678a"/>
      <path id="Path_216" data-name="Path 216" d="M46.239,13.521H28.364a.532.532,0,1,1,0-1.063H46.239a.532.532,0,0,1,0,1.063" transform="translate(1.761 0.788)" fill="#13678a"/>
      <path id="Path_217" data-name="Path 217" d="M3,16.137a3,3,0,1,1,3-3,3,3,0,0,1-3,3M3,11.2a1.937,1.937,0,1,0,1.936,1.936A1.938,1.938,0,0,0,3,11.2" transform="translate(0 0.641)" fill="#13678a"/>
      <path id="Path_218" data-name="Path 218" d="M47.641,16.137a3,3,0,1,1,3-3,3,3,0,0,1-3,3m0-4.937a1.937,1.937,0,1,0,1.936,1.936A1.938,1.938,0,0,0,47.641,11.2" transform="translate(2.825 0.641)" fill="#13678a"/>
      <path id="Path_219" data-name="Path 219" d="M42.175,6a3,3,0,1,1,3-3,3,3,0,0,1-3,3m0-4.937A1.937,1.937,0,1,0,44.111,3a1.939,1.939,0,0,0-1.936-1.936" transform="translate(2.479 0)" fill="#13678a"/>
      <path id="Path_220" data-name="Path 220" d="M8.391,6a3,3,0,1,1,3-3,3,3,0,0,1-3,3m0-4.937A1.937,1.937,0,1,0,10.327,3,1.939,1.939,0,0,0,8.391,1.063" transform="translate(0.341 0)" fill="#13678a"/>
      <path id="Path_221" data-name="Path 221" d="M42.175,26.508a3,3,0,1,1,3-3,3,3,0,0,1-3,3m0-4.936a1.936,1.936,0,1,0,1.936,1.936,1.939,1.939,0,0,0-1.936-1.936" transform="translate(2.479 1.298)" fill="#13678a"/>
      <path id="Path_222" data-name="Path 222" d="M8.391,26.508a3,3,0,1,1,3-3,3,3,0,0,1-3,3m0-4.936a1.936,1.936,0,1,0,1.936,1.936,1.939,1.939,0,0,0-1.936-1.936" transform="translate(0.341 1.298)" fill="#13678a"/>
      <path id="Path_223" data-name="Path 223" d="M23.048,13.521H5.173a.532.532,0,0,1,0-1.063H23.048a.532.532,0,0,1,0,1.063" transform="translate(0.294 0.788)" fill="#13678a"/>
      <path id="Path_224" data-name="Path 224" d="M37.33,12.264H27.892a.532.532,0,0,1,0-1.063h9.151L41.33,4.648a.531.531,0,1,1,.889.582l-4.445,6.792a.529.529,0,0,1-.444.241" transform="translate(1.731 0.278)" fill="#13678a"/>
      <path id="Path_225" data-name="Path 225" d="M23.245,12.264H13.806a.529.529,0,0,1-.444-.241L8.916,5.23a.531.531,0,1,1,.889-.582L14.094,11.2h9.151a.532.532,0,0,1,0,1.063" transform="translate(0.559 0.278)" fill="#13678a"/>
      <path id="Path_226" data-name="Path 226" d="M41.775,21.977a.53.53,0,0,1-.444-.241l-4.287-6.552H27.892a.532.532,0,0,1,0-1.063H37.33a.529.529,0,0,1,.444.241l4.445,6.793a.53.53,0,0,1-.154.735.518.518,0,0,1-.29.087" transform="translate(1.731 0.893)" fill="#13678a"/>
      <path id="Path_227" data-name="Path 227" d="M9.361,21.977a.518.518,0,0,1-.29-.087.53.53,0,0,1-.154-.735l4.446-6.793a.527.527,0,0,1,.444-.241h9.439a.532.532,0,0,1,0,1.063H14.093L9.805,21.735a.531.531,0,0,1-.444.241" transform="translate(0.559 0.893)" fill="#13678a"/>
    </g>
  </g>
</svg>
