<svg xmlns="http://www.w3.org/2000/svg" xmlns:xlink="http://www.w3.org/1999/xlink" width="33.917" height="35.423" viewBox="0 0 33.917 35.423">
  <defs>
    <clipPath id="clip-path">
      <rect id="Rectangle_529" data-name="Rectangle 529" width="33.917" height="35.423" fill="none"/>
    </clipPath>
  </defs>
  <g id="Group_722" data-name="Group 722" transform="translate(0)">
    <g id="Group_721" data-name="Group 721" transform="translate(0 0)" clip-path="url(#clip-path)">
      <path id="Path_191" data-name="Path 191" d="M18.812,27.587a1.826,1.826,0,0,1-.915-.247l-2.137-1.234a1.84,1.84,0,0,1-.673-2.511l.333-.577a9.033,9.033,0,0,1-1.545-2.673h-.665a1.84,1.84,0,0,1-1.838-1.838V16.038A1.84,1.84,0,0,1,13.209,14.2h.665a9.06,9.06,0,0,1,1.545-2.673l-.333-.577a1.84,1.84,0,0,1,.673-2.511L17.9,7.2a1.837,1.837,0,0,1,2.511.673l.333.576a8.957,8.957,0,0,1,3.087,0l.333-.576A1.841,1.841,0,0,1,26.672,7.2L28.81,8.437a1.842,1.842,0,0,1,.673,2.511l-.333.577A9.01,9.01,0,0,1,30.694,14.2h.665A1.841,1.841,0,0,1,33.2,16.038v2.468a1.841,1.841,0,0,1-1.839,1.838h-.665a9.01,9.01,0,0,1-1.544,2.673l.333.577a1.842,1.842,0,0,1-.673,2.511L26.672,27.34a1.841,1.841,0,0,1-2.51-.673l-.334-.577a8.957,8.957,0,0,1-3.087,0l-.334.577a1.821,1.821,0,0,1-1.114.856,1.86,1.86,0,0,1-.481.064m-5.6-12.325a.776.776,0,0,0-.775.775v2.468a.776.776,0,0,0,.775.775h1.044a.532.532,0,0,1,.507.371,7.932,7.932,0,0,0,1.7,2.943.531.531,0,0,1,.068.625l-.523.906a.773.773,0,0,0,.284,1.058l2.137,1.236a.775.775,0,0,0,1.058-.284l.524-.907a.527.527,0,0,1,.574-.253,7.9,7.9,0,0,0,3.4,0,.53.53,0,0,1,.575.254l.522.906a.776.776,0,0,0,1.058.284l2.138-1.236a.777.777,0,0,0,.283-1.059l-.522-.9a.531.531,0,0,1,.068-.625,7.927,7.927,0,0,0,1.7-2.942.533.533,0,0,1,.507-.372h1.044a.776.776,0,0,0,.776-.775V16.038a.776.776,0,0,0-.776-.775H30.314a.533.533,0,0,1-.507-.372,7.927,7.927,0,0,0-1.7-2.942.531.531,0,0,1-.068-.624l.523-.907a.777.777,0,0,0-.284-1.058L26.14,8.125a.777.777,0,0,0-1.059.284l-.521.9a.529.529,0,0,1-.575.254,7.938,7.938,0,0,0-3.4,0,.527.527,0,0,1-.574-.253l-.523-.906a.774.774,0,0,0-1.059-.284L16.291,9.359a.774.774,0,0,0-.284,1.058l.523.907a.531.531,0,0,1-.068.624,7.955,7.955,0,0,0-1.7,2.943.532.532,0,0,1-.507.371Zm9.075,7.766a5.757,5.757,0,1,1,5.756-5.757,5.764,5.764,0,0,1-5.756,5.757m0-10.45a4.693,4.693,0,1,0,4.692,4.693,4.7,4.7,0,0,0-4.692-4.693" transform="translate(0.72 0.44)" fill="#13678a"/>
      <path id="Path_192" data-name="Path 192" d="M20.635,26.809a1.307,1.307,0,0,1-1.785.478l-2.137-1.234a1.307,1.307,0,0,1-.478-1.785l.523-.906a8.422,8.422,0,0,1-1.816-3.141H13.9a1.307,1.307,0,0,1-1.307-1.307V16.445A1.308,1.308,0,0,1,13.9,15.138h1.044A8.422,8.422,0,0,1,16.758,12l-.523-.906a1.307,1.307,0,0,1,.478-1.785L18.85,8.072a1.307,1.307,0,0,1,1.785.478l.523.906a8.5,8.5,0,0,1,1.814-.2V3.363A2.863,2.863,0,0,0,20.109.5H3.363A2.862,2.862,0,0,0,.5,3.363V32A2.863,2.863,0,0,0,3.363,34.86H20.109A2.864,2.864,0,0,0,22.972,32V26.1a8.429,8.429,0,0,1-1.814-.2Z" transform="translate(0.032 0.032)" fill="#afe0ef"/>
      <path id="Path_193" data-name="Path 193" d="M20.14,35.423H3.4a3.4,3.4,0,0,1-3.4-3.4V3.4A3.4,3.4,0,0,1,3.4,0H20.14a3.4,3.4,0,0,1,3.4,3.4V9.29A.53.53,0,0,1,23,9.822a7.921,7.921,0,0,0-1.7.186.528.528,0,0,1-.574-.254l-.523-.906a.777.777,0,0,0-1.06-.283L17.01,9.8a.777.777,0,0,0-.285,1.059l.523.906a.533.533,0,0,1-.067.625,7.93,7.93,0,0,0-1.7,2.942.532.532,0,0,1-.506.372H13.929a.776.776,0,0,0-.775.775v2.468a.776.776,0,0,0,.775.775h1.044a.531.531,0,0,1,.506.371,7.826,7.826,0,0,0,1.7,2.943.529.529,0,0,1,.067.624l-.523.907a.776.776,0,0,0,.285,1.058l2.136,1.234a.775.775,0,0,0,1.059-.283h0l.523-.906a.525.525,0,0,1,.574-.253A7.92,7.92,0,0,0,23,25.6a.532.532,0,0,1,.376.156.527.527,0,0,1,.155.375v5.9a3.4,3.4,0,0,1-3.4,3.4M3.4,1.063A2.335,2.335,0,0,0,1.063,3.4V32.028A2.335,2.335,0,0,0,3.4,34.36H20.14a2.335,2.335,0,0,0,2.332-2.332v-5.38a9.083,9.083,0,0,1-1.012-.118l-.333.576a1.837,1.837,0,0,1-2.511.673l-2.136-1.234a1.836,1.836,0,0,1-.673-2.51l.332-.576a8.9,8.9,0,0,1-1.545-2.674h-.663a1.84,1.84,0,0,1-1.838-1.838V16.478a1.84,1.84,0,0,1,1.838-1.838h.663a9.046,9.046,0,0,1,1.545-2.673l-.332-.577a1.838,1.838,0,0,1,.673-2.511l2.136-1.234a1.84,1.84,0,0,1,2.513.674l.332.576a9.086,9.086,0,0,1,1.012-.119V3.4A2.335,2.335,0,0,0,20.14,1.063Z" transform="translate(0 0)" fill="#13678a"/>
      <line id="Line_15" data-name="Line 15" x2="22.471" transform="translate(0.532 28.916)" fill="#afe0ef"/>
      <path id="Path_194" data-name="Path 194" d="M23,27.758H.532a.532.532,0,0,1,0-1.063H23a.532.532,0,0,1,0,1.063" transform="translate(0 1.69)" fill="#13678a"/>
      <line id="Line_16" data-name="Line 16" x2="22.471" transform="translate(0.532 4.308)" fill="#afe0ef"/>
      <path id="Path_195" data-name="Path 195" d="M23,4.614H.532a.532.532,0,0,1,0-1.063H23a.532.532,0,0,1,0,1.063" transform="translate(0 0.225)" fill="#13678a"/>
      <path id="Path_196" data-name="Path 196" d="M13.1,30.114A1.917,1.917,0,1,1,11.181,28.2,1.917,1.917,0,0,1,13.1,30.114" transform="translate(0.586 1.785)" fill="#afe0ef"/>
      <path id="Path_197" data-name="Path 197" d="M11.213,32.593a2.448,2.448,0,1,1,2.449-2.448,2.451,2.451,0,0,1-2.449,2.448m0-3.833A1.385,1.385,0,1,0,12.6,30.146a1.386,1.386,0,0,0-1.385-1.385" transform="translate(0.555 1.753)" fill="#13678a"/>
      <line id="Line_17" data-name="Line 17" x2="3.482" transform="translate(10.027 2.378)" fill="#afe0ef"/>
      <path id="Path_198" data-name="Path 198" d="M12.944,2.8H9.462a.532.532,0,0,1,0-1.063h3.482a.532.532,0,0,1,0,1.063" transform="translate(0.565 0.11)" fill="#13678a"/>
    </g>
  </g>
</svg>
