<svg xmlns="http://www.w3.org/2000/svg" xmlns:xlink="http://www.w3.org/1999/xlink" width="37.871" height="45.884" viewBox="0 0 37.871 45.884">
  <defs>
    <clipPath id="clip-path">
      <rect id="Rectangle_533" data-name="Rectangle 533" width="37.871" height="45.884" fill="none"/>
    </clipPath>
  </defs>
  <g id="Group_730" data-name="Group 730" transform="translate(0)">
    <g id="Group_729" data-name="Group 729" transform="translate(0 0)" clip-path="url(#clip-path)">
      <path id="Path_242" data-name="Path 242" d="M15.677,39.869a.53.53,0,0,1-.417-.2L6.917,29.1a.531.531,0,0,1-.045-.592l3.538-6.2a.519.519,0,0,1,.533-.263l11.6,1.549a.525.525,0,0,1,.347.2l1.1,1.388a.535.535,0,0,1,.045.593L16.14,39.6a.532.532,0,0,1-.423.267h-.039m-7.7-11.144,7.633,9.665,7.322-12.832-.739-.936L11.156,23.149Z" transform="translate(0.43 1.395)" fill="#13678a"/>
      <path id="Path_243" data-name="Path 243" d="M28.521,41.5a.536.536,0,0,1-.071-.005L15.109,39.69a.532.532,0,0,1-.39-.791l7.892-13.826a.544.544,0,0,1,.533-.264l13.34,1.81a.532.532,0,0,1,.391.79L28.983,41.236a.534.534,0,0,1-.463.268M16.033,38.743l12.2,1.654L35.56,27.565l-12.2-1.653Z" transform="translate(0.927 1.57)" fill="#13678a"/>
      <path id="Path_244" data-name="Path 244" d="M36.008,28.193a.535.535,0,0,1-.071-.005L22.6,26.379a.529.529,0,0,1-.346-.2l-1.1-1.387a.531.531,0,0,1-.049-.585l3.986-7.284a.532.532,0,0,1,.554-.269l1.877.317a.532.532,0,0,1,.318.182l8.572,10.163a.531.531,0,0,1-.406.874M22.953,25.354l11.759,1.595-7.557-8.958-1.311-.221-3.635,6.642Z" transform="translate(1.332 1.053)" fill="#13678a"/>
      <path id="Path_245" data-name="Path 245" d="M10.81,21.935l-6.8-8.608L10.442,2.062l6.8,8.608Z" transform="translate(0.254 0.13)" fill="#afe0ef"/>
      <path id="Path_246" data-name="Path 246" d="M10.841,22.5a.534.534,0,0,1-.418-.2l-6.8-8.608a.531.531,0,0,1-.045-.592L10.012,1.83a.531.531,0,0,1,.879-.065l6.8,8.607a.537.537,0,0,1,.045.593L11.3,22.23a.537.537,0,0,1-.423.267h-.039M4.685,13.31l6.086,7.708L16.63,10.75,10.544,3.042Z" transform="translate(0.222 0.099)" fill="#13678a"/>
      <path id="Path_247" data-name="Path 247" d="M21.274,22.9,10.406,21.422l6.429-11.264L27.7,11.632Z" transform="translate(0.659 0.643)" fill="#afe0ef"/>
      <path id="Path_248" data-name="Path 248" d="M21.305,23.458a.523.523,0,0,1-.071-.005L10.365,21.98a.532.532,0,0,1-.39-.791L16.4,9.926a.545.545,0,0,1,.534-.263l10.868,1.473a.532.532,0,0,1,.39.791L21.767,23.19a.528.528,0,0,1-.461.268M11.289,21.033l9.732,1.318,5.86-10.268-9.732-1.318Z" transform="translate(0.627 0.611)" fill="#13678a"/>
      <path id="Path_249" data-name="Path 249" d="M10.06,2.062l6.8,8.608,10.868,1.473L20.74,3.865Z" transform="translate(0.637 0.13)" fill="#afe0ef"/>
      <path id="Path_250" data-name="Path 250" d="M27.756,12.706a.533.533,0,0,1-.071,0L16.816,11.228a.529.529,0,0,1-.346-.2l-6.8-8.607a.532.532,0,0,1,.506-.854l10.681,1.8a.532.532,0,0,1,.318.182l6.984,8.28a.53.53,0,0,1-.406.874M17.172,10.2l9.288,1.26L20.492,4.387l-9.128-1.54Z" transform="translate(0.605 0.099)" fill="#13678a"/>
      <path id="Path_251" data-name="Path 251" d="M15,44.894H.532A.531.531,0,0,1,0,44.362V16.179a.532.532,0,0,1,1.063,0V43.83H15a.532.532,0,0,1,0,1.063" transform="translate(0 0.99)" fill="#13678a"/>
      <path id="Path_252" data-name="Path 252" d="M35.289,21.9a.532.532,0,0,1-.532-.532V1.063H20.822a.532.532,0,1,1,0-1.063H35.289a.532.532,0,0,1,.532.532V21.367a.532.532,0,0,1-.532.532" transform="translate(1.284 0)" fill="#13678a"/>
    </g>
  </g>
</svg>
